<?xml version="1.0" encoding="UTF-8" standalone="no"?>
<!DOCTYPE svg PUBLIC "-//W3C//DTD SVG 1.1//EN"
 "http://www.w3.org/Graphics/SVG/1.1/DTD/svg11.dtd">
<!-- Generated by graphviz version 9.0.0 (20230911.1827)
 -->
<!-- Title: G Pages: 1 -->
<svg width="674pt" height="425pt"
 viewBox="0.00 0.00 674.23 424.51" xmlns="http://www.w3.org/2000/svg" xmlns:xlink="http://www.w3.org/1999/xlink">
<g id="graph0" class="graph" transform="scale(1 1) rotate(0) translate(4 420.51)">
<title>G</title><style>.edge>path:hover{stroke-width:8}</style>
<polygon fill="white" stroke="none" points="-4,4 -4,-420.51 670.23,-420.51 670.23,4 -4,4"/>
<!-- PCAP_Analyser_py -->
<g id="node1" class="node">
<title>PCAP_Analyser_py</title><style>.edge>path:hover{stroke-width:8}</style>
<ellipse fill="#7e4444" stroke="black" cx="333.23" cy="-22.63" rx="63.29" ry="22.63"/>
<text text-anchor="middle" x="333.23" y="-25.13" font-family="Helvetica,sans-Serif" font-size="10.00" fill="#ffffff">PCAP_Analyser.</text>
<text text-anchor="middle" x="333.23" y="-13.13" font-family="Helvetica,sans-Serif" font-size="10.00" fill="#ffffff">py</text>
</g>
<!-- dpkt -->
<g id="node2" class="node">
<title>dpkt</title><style>.edge>path:hover{stroke-width:8}</style>
<ellipse fill="#f97606" stroke="black" cx="379.23" cy="-208.25" rx="27" ry="18"/>
<text text-anchor="middle" x="379.23" y="-204.75" font-family="Helvetica,sans-Serif" font-size="10.00" fill="#000000">dpkt</text>
</g>
<!-- extract_urls -->
<g id="node3" class="node">
<title>extract_urls</title><style>.edge>path:hover{stroke-width:8}</style>
<ellipse fill="#a49d46" stroke="black" cx="522.23" cy="-136.25" rx="40.29" ry="18"/>
<text text-anchor="middle" x="522.23" y="-132.75" font-family="Helvetica,sans-Serif" font-size="10.00" fill="#000000">extract_urls</text>
</g>
<!-- dpkt&#45;&gt;extract_urls -->
<g id="edge1" class="edge">
<title>dpkt&#45;&gt;extract_urls</title><style>.edge>path:hover{stroke-width:8}</style>
<path fill="none" stroke="black" d="M400.64,-196.78C423.06,-185.8 458.7,-168.36 485.6,-155.18"/>
<polygon fill="#f97606" stroke="black" points="487,-158.4 494.45,-150.86 483.93,-152.11 487,-158.4"/>
</g>
<!-- find_emails -->
<g id="node4" class="node">
<title>find_emails</title><style>.edge>path:hover{stroke-width:8}</style>
<ellipse fill="#8bb34c" stroke="black" cx="425.23" cy="-136.25" rx="38.94" ry="18"/>
<text text-anchor="middle" x="425.23" y="-132.75" font-family="Helvetica,sans-Serif" font-size="10.00" fill="#000000">find_emails</text>
</g>
<!-- dpkt&#45;&gt;find_emails -->
<g id="edge2" class="edge">
<title>dpkt&#45;&gt;find_emails</title><style>.edge>path:hover{stroke-width:8}</style>
<path fill="none" stroke="black" d="M389.67,-191.37C395.18,-182.99 402.07,-172.5 408.32,-162.99"/>
<polygon fill="#f97606" stroke="black" points="411.12,-165.11 413.68,-154.83 405.27,-161.26 411.12,-165.11"/>
</g>
<!-- network_graph -->
<g id="node8" class="node">
<title>network_graph</title><style>.edge>path:hover{stroke-width:8}</style>
<ellipse fill="#439d88" stroke="black" cx="138.23" cy="-136.25" rx="47.51" ry="18"/>
<text text-anchor="middle" x="138.23" y="-132.75" font-family="Helvetica,sans-Serif" font-size="10.00" fill="#000000">network_graph</text>
</g>
<!-- dpkt&#45;&gt;network_graph -->
<g id="edge3" class="edge">
<title>dpkt&#45;&gt;network_graph</title><style>.edge>path:hover{stroke-width:8}</style>
<path fill="none" stroke="black" d="M354.51,-200.21C319.16,-190.13 252.17,-170.95 195.23,-154.25 192.12,-153.34 188.91,-152.4 185.68,-151.44"/>
<polygon fill="#f97606" stroke="black" points="186.74,-148.11 176.16,-148.62 184.75,-154.82 186.74,-148.11"/>
</g>
<!-- packet_ips -->
<g id="node11" class="node">
<title>packet_ips</title><style>.edge>path:hover{stroke-width:8}</style>
<ellipse fill="#5c4cb3" stroke="black" cx="242.23" cy="-136.25" rx="38.03" ry="18"/>
<text text-anchor="middle" x="242.23" y="-132.75" font-family="Helvetica,sans-Serif" font-size="10.00" fill="#ffffff">packet_ips</text>
</g>
<!-- dpkt&#45;&gt;packet_ips -->
<g id="edge4" class="edge">
<title>dpkt&#45;&gt;packet_ips</title><style>.edge>path:hover{stroke-width:8}</style>
<path fill="none" stroke="black" d="M358.12,-196.47C336.62,-185.48 302.89,-168.25 277.35,-155.2"/>
<polygon fill="#f97606" stroke="black" points="279.16,-152.19 268.66,-150.76 275.98,-158.43 279.16,-152.19"/>
</g>
<!-- packet_table -->
<g id="node12" class="node">
<title>packet_table</title><style>.edge>path:hover{stroke-width:8}</style>
<ellipse fill="#8046a4" stroke="black" cx="623.23" cy="-136.25" rx="43" ry="18"/>
<text text-anchor="middle" x="623.23" y="-132.75" font-family="Helvetica,sans-Serif" font-size="10.00" fill="#ffffff">packet_table</text>
</g>
<!-- dpkt&#45;&gt;packet_table -->
<g id="edge5" class="edge">
<title>dpkt&#45;&gt;packet_table</title><style>.edge>path:hover{stroke-width:8}</style>
<path fill="none" stroke="black" d="M404.19,-200.76C440.92,-191.12 511.63,-172.21 571.23,-154.25 573.94,-153.44 576.72,-152.58 579.51,-151.71"/>
<polygon fill="#f97606" stroke="black" points="580.38,-155.11 588.85,-148.74 578.26,-148.44 580.38,-155.11"/>
</g>
<!-- readparse -->
<g id="node15" class="node">
<title>readparse</title><style>.edge>path:hover{stroke-width:8}</style>
<ellipse fill="#b34c7c" stroke="black" cx="333.23" cy="-136.25" rx="35.33" ry="18"/>
<text text-anchor="middle" x="333.23" y="-132.75" font-family="Helvetica,sans-Serif" font-size="10.00" fill="#ffffff">readparse</text>
</g>
<!-- dpkt&#45;&gt;readparse -->
<g id="edge6" class="edge">
<title>dpkt&#45;&gt;readparse</title><style>.edge>path:hover{stroke-width:8}</style>
<path fill="none" stroke="black" d="M368.79,-191.37C363.28,-182.99 356.39,-172.5 350.14,-162.99"/>
<polygon fill="#f97606" stroke="black" points="353.19,-161.26 344.78,-154.83 347.34,-165.11 353.19,-161.26"/>
</g>
<!-- extract_urls&#45;&gt;PCAP_Analyser_py -->
<g id="edge7" class="edge">
<title>extract_urls&#45;&gt;PCAP_Analyser_py</title><style>.edge>path:hover{stroke-width:8}</style>
<path fill="none" stroke="black" d="M491.51,-124.16C485.48,-122.11 479.18,-120.05 473.23,-118.25 411.72,-99.71 332.22,-146.49 333.23,-82.25"/>
</g>
<!-- find_emails&#45;&gt;PCAP_Analyser_py -->
<g id="edge8" class="edge">
<title>find_emails&#45;&gt;PCAP_Analyser_py</title><style>.edge>path:hover{stroke-width:8}</style>
<path fill="none" stroke="black" d="M395.26,-124.4C368.32,-113.7 333,-96.86 333.23,-82.25"/>
</g>
<!-- line_graph -->
<g id="node5" class="node">
<title>line_graph</title><style>.edge>path:hover{stroke-width:8}</style>
<ellipse fill="#55a446" stroke="black" cx="36.23" cy="-136.25" rx="36.23" ry="18"/>
<text text-anchor="middle" x="36.23" y="-132.75" font-family="Helvetica,sans-Serif" font-size="10.00" fill="#000000">line_graph</text>
</g>
<!-- line_graph&#45;&gt;PCAP_Analyser_py -->
<g id="edge9" class="edge">
<title>line_graph&#45;&gt;PCAP_Analyser_py</title><style>.edge>path:hover{stroke-width:8}</style>
<path fill="none" stroke="black" d="M333.23,-81.25C333.36,-73.32 333.4,-64.78 333.41,-56.76"/>
<polygon fill="#55a446" stroke="black" points="336.91,-57.03 333.39,-47.03 329.91,-57.04 336.91,-57.03"/>
<path fill="none" stroke="black" d="M63.05,-124.03C68.96,-121.86 75.25,-119.79 81.23,-118.25 136.02,-104.17 332.34,-138.82 333.23,-82.25"/>
</g>
<!-- matplotlib -->
<g id="node6" class="node">
<title>matplotlib</title><style>.edge>path:hover{stroke-width:8}</style>
<ellipse fill="#23c856" stroke="black" cx="71.23" cy="-208.25" rx="34.88" ry="18"/>
<text text-anchor="middle" x="71.23" y="-204.75" font-family="Helvetica,sans-Serif" font-size="10.00" fill="#000000">matplotlib</text>
</g>
<!-- matplotlib&#45;&gt;line_graph -->
<g id="edge10" class="edge">
<title>matplotlib&#45;&gt;line_graph</title><style>.edge>path:hover{stroke-width:8}</style>
<path fill="none" stroke="black" d="M62.76,-190.31C58.85,-182.49 54.1,-173 49.72,-164.23"/>
<polygon fill="#23c856" stroke="black" points="52.9,-162.78 45.3,-155.4 46.64,-165.91 52.9,-162.78"/>
</g>
<!-- matplotlib&#45;&gt;network_graph -->
<g id="edge11" class="edge">
<title>matplotlib&#45;&gt;network_graph</title><style>.edge>path:hover{stroke-width:8}</style>
<path fill="none" stroke="black" d="M86.1,-191.72C94.45,-183 105.06,-171.91 114.53,-162.02"/>
<polygon fill="#23c856" stroke="black" points="117.04,-164.46 121.42,-154.82 111.98,-159.62 117.04,-164.46"/>
</g>
<!-- matplotlib_pyplot -->
<g id="node7" class="node">
<title>matplotlib_pyplot</title><style>.edge>path:hover{stroke-width:8}</style>
<ellipse fill="#31c45e" stroke="black" cx="140.23" cy="-284.88" rx="43.13" ry="22.63"/>
<text text-anchor="middle" x="140.23" y="-287.38" font-family="Helvetica,sans-Serif" font-size="10.00" fill="#000000">matplotlib.</text>
<text text-anchor="middle" x="140.23" y="-275.38" font-family="Helvetica,sans-Serif" font-size="10.00" fill="#000000">pyplot</text>
</g>
<!-- matplotlib_pyplot&#45;&gt;line_graph -->
<g id="edge12" class="edge">
<title>matplotlib_pyplot&#45;&gt;line_graph</title><style>.edge>path:hover{stroke-width:8}</style>
<path fill="none" stroke="black" d="M138.23,-207.25C133.12,-191.9 98.66,-170.35 71.19,-155.24"/>
<polygon fill="#31c45e" stroke="black" points="72.87,-152.17 62.41,-150.5 69.55,-158.33 72.87,-152.17"/>
<path fill="none" stroke="black" d="M142.92,-262.08C144.02,-246.88 143.92,-226.35 138.23,-209.25"/>
</g>
<!-- matplotlib_pyplot&#45;&gt;matplotlib -->
<g id="edge13" class="edge">
<title>matplotlib_pyplot&#45;&gt;matplotlib</title><style>.edge>path:hover{stroke-width:8}</style>
<path fill="none" stroke="black" d="M122.1,-264.27C113.33,-254.79 102.72,-243.32 93.47,-233.31"/>
<polygon fill="#31c45e" stroke="black" points="96.15,-231.05 86.79,-226.08 91.01,-235.8 96.15,-231.05"/>
</g>
<!-- matplotlib_pyplot&#45;&gt;network_graph -->
<g id="edge14" class="edge">
<title>matplotlib_pyplot&#45;&gt;network_graph</title><style>.edge>path:hover{stroke-width:8}</style>
<path fill="none" stroke="black" d="M138.23,-207.25C133.85,-194.1 133.38,-178.77 134.2,-165.81"/>
<polygon fill="#31c45e" stroke="black" points="137.65,-166.5 135.09,-156.22 130.68,-165.85 137.65,-166.5"/>
</g>
<!-- network_graph&#45;&gt;PCAP_Analyser_py -->
<g id="edge15" class="edge">
<title>network_graph&#45;&gt;PCAP_Analyser_py</title><style>.edge>path:hover{stroke-width:8}</style>
<path fill="none" stroke="black" d="M174.36,-124.27C181.28,-122.23 188.47,-120.14 195.23,-118.25 256.28,-101.19 332.23,-145.63 333.23,-82.25"/>
</g>
<!-- networkx -->
<g id="node9" class="node">
<title>networkx</title><style>.edge>path:hover{stroke-width:8}</style>
<ellipse fill="#40a2c0" stroke="black" cx="199.23" cy="-208.25" rx="33.07" ry="18"/>
<text text-anchor="middle" x="199.23" y="-204.75" font-family="Helvetica,sans-Serif" font-size="10.00" fill="#000000">networkx</text>
</g>
<!-- networkx&#45;&gt;network_graph -->
<g id="edge16" class="edge">
<title>networkx&#45;&gt;network_graph</title><style>.edge>path:hover{stroke-width:8}</style>
<path fill="none" stroke="black" d="M185.69,-191.72C178.17,-183.08 168.62,-172.13 160.07,-162.32"/>
<polygon fill="#40a2c0" stroke="black" points="162.78,-160.1 153.57,-154.86 157.51,-164.7 162.78,-160.1"/>
</g>
<!-- numpy -->
<g id="node10" class="node">
<title>numpy</title><style>.edge>path:hover{stroke-width:8}</style>
<ellipse fill="#265dd9" stroke="black" cx="69.23" cy="-398.51" rx="27.21" ry="18"/>
<text text-anchor="middle" x="69.23" y="-395.01" font-family="Helvetica,sans-Serif" font-size="10.00" fill="#ffffff">numpy</text>
</g>
<!-- numpy&#45;&gt;line_graph -->
<g id="edge17" class="edge">
<title>numpy&#45;&gt;line_graph</title><style>.edge>path:hover{stroke-width:8}</style>
<path fill="none" stroke="black" d="M69.23,-343.51C76.07,-318.83 73.91,-311.06 69.23,-285.88"/>
<path fill="none" stroke="black" d="M66.95,-380.49C66.09,-369.94 65.99,-356.21 69.23,-344.51"/>
<path fill="none" stroke="black" d="M69.23,-283.88C63.44,-252.72 37.05,-256.39 27.23,-226.25 20.83,-206.6 23.52,-183.33 27.57,-165.52"/>
<polygon fill="#265dd9" stroke="black" points="30.94,-166.45 30.05,-155.89 24.17,-164.71 30.94,-166.45"/>
</g>
<!-- numpy&#45;&gt;matplotlib -->
<g id="edge18" class="edge">
<title>numpy&#45;&gt;matplotlib</title><style>.edge>path:hover{stroke-width:8}</style>
<path fill="none" stroke="black" d="M69.23,-283.88C66.45,-268.9 66.64,-251.94 67.67,-237.98"/>
<polygon fill="#265dd9" stroke="black" points="71.14,-238.4 68.59,-228.11 64.17,-237.75 71.14,-238.4"/>
</g>
<!-- numpy&#45;&gt;matplotlib_pyplot -->
<g id="edge19" class="edge">
<title>numpy&#45;&gt;matplotlib_pyplot</title><style>.edge>path:hover{stroke-width:8}</style>
<path fill="none" stroke="black" d="M69.23,-343.51C73.53,-328 85.56,-315.73 98.52,-306.58"/>
<polygon fill="#265dd9" stroke="black" points="100.24,-309.63 106.76,-301.28 96.46,-303.75 100.24,-309.63"/>
</g>
<!-- packet_ips&#45;&gt;PCAP_Analyser_py -->
<g id="edge20" class="edge">
<title>packet_ips&#45;&gt;PCAP_Analyser_py</title><style>.edge>path:hover{stroke-width:8}</style>
<path fill="none" stroke="black" d="M271.68,-124.35C298.17,-113.61 333,-96.74 333.23,-82.25"/>
</g>
<!-- packet_table&#45;&gt;PCAP_Analyser_py -->
<g id="edge21" class="edge">
<title>packet_table&#45;&gt;PCAP_Analyser_py</title><style>.edge>path:hover{stroke-width:8}</style>
<path fill="none" stroke="black" d="M591.29,-123.89C584.71,-121.81 577.79,-119.81 571.23,-118.25 519.19,-105.9 332.39,-135.74 333.23,-82.25"/>
</g>
<!-- prettytable -->
<g id="node13" class="node">
<title>prettytable</title><style>.edge>path:hover{stroke-width:8}</style>
<ellipse fill="#c247b9" stroke="black" cx="572.23" cy="-208.25" rx="37.13" ry="18"/>
<text text-anchor="middle" x="572.23" y="-204.75" font-family="Helvetica,sans-Serif" font-size="10.00" fill="#ffffff">prettytable</text>
</g>
<!-- prettytable&#45;&gt;extract_urls -->
<g id="edge22" class="edge">
<title>prettytable&#45;&gt;extract_urls</title><style>.edge>path:hover{stroke-width:8}</style>
<path fill="none" stroke="black" d="M560.63,-191.02C554.72,-182.75 547.4,-172.49 540.73,-163.16"/>
<polygon fill="#c247b9" stroke="black" points="543.65,-161.22 534.99,-155.12 537.96,-165.29 543.65,-161.22"/>
</g>
<!-- prettytable&#45;&gt;packet_table -->
<g id="edge23" class="edge">
<title>prettytable&#45;&gt;packet_table</title><style>.edge>path:hover{stroke-width:8}</style>
<path fill="none" stroke="black" d="M584.06,-191.02C590.09,-182.75 597.56,-172.49 604.36,-163.16"/>
<polygon fill="#c247b9" stroke="black" points="607.16,-165.25 610.22,-155.11 601.5,-161.13 607.16,-165.25"/>
</g>
<!-- prettytable_PrettyTable -->
<g id="node14" class="node">
<title>prettytable_PrettyTable</title><style>.edge>path:hover{stroke-width:8}</style>
<ellipse fill="#c247b9" stroke="black" cx="572.23" cy="-284.88" rx="46.32" ry="22.63"/>
<text text-anchor="middle" x="572.23" y="-287.38" font-family="Helvetica,sans-Serif" font-size="10.00" fill="#ffffff">prettytable.</text>
<text text-anchor="middle" x="572.23" y="-275.38" font-family="Helvetica,sans-Serif" font-size="10.00" fill="#ffffff">PrettyTable</text>
</g>
<!-- prettytable_PrettyTable&#45;&gt;extract_urls -->
<g id="edge24" class="edge">
<title>prettytable_PrettyTable&#45;&gt;extract_urls</title><style>.edge>path:hover{stroke-width:8}</style>
<path fill="none" stroke="black" d="M551.41,-264.29C541.9,-253.97 531.59,-240.52 526.23,-226.25 519.03,-207.08 518.21,-183.92 519.09,-166.04"/>
<polygon fill="#c247b9" stroke="black" points="522.58,-166.35 519.81,-156.12 515.6,-165.84 522.58,-166.35"/>
</g>
<!-- prettytable_PrettyTable&#45;&gt;packet_table -->
<g id="edge25" class="edge">
<title>prettytable_PrettyTable&#45;&gt;packet_table</title><style>.edge>path:hover{stroke-width:8}</style>
<path fill="none" stroke="black" d="M592.98,-264.26C602.47,-253.94 612.79,-240.49 618.23,-226.25 625.54,-207.11 626.63,-183.95 625.97,-166.06"/>
<polygon fill="#c247b9" stroke="black" points="629.47,-165.91 625.38,-156.14 622.48,-166.33 629.47,-165.91"/>
</g>
<!-- readparse&#45;&gt;PCAP_Analyser_py -->
<g id="edge26" class="edge">
<title>readparse&#45;&gt;PCAP_Analyser_py</title><style>.edge>path:hover{stroke-width:8}</style>
<path fill="none" stroke="black" d="M333.09,-118.07C333.05,-107.7 333.04,-94.22 333.23,-82.25"/>
</g>
</g>
</svg>
